# MagicaVoxel @ Ephtracy

# group
o 

# material
mtllib pollo.mtl
usemtl palette

# normals
vn -1 0 0
vn 1 0 0
vn 0 0 1
vn 0 0 -1
vn 0 -1 0
vn 0 1 0

# texcoords
vt 0.876953 0.5
vt 0.970703 0.5
vt 0.974609 0.5
vt 0.978516 0.5

# verts
v 0.1 3.1 -0.6
v 0.1 3.1 -1
v 0.1 3.2 -0.6
v 0.1 3.2 -1
v 0.2 3 -0.7
v 0.2 3 -0.9
v 0.2 3.1 -0.7
v 0.2 3.1 -0.9
v 0.3 2.9 -0.5
v 0.3 2.9 -1.1
v 0.3 3 -0.7
v 0.3 3 -0.9
v 0.3 3.1 -0.6
v 0.3 3.1 -0.7
v 0.3 3.1 -0.9
v 0.3 3.1 -1
v 0.3 3.2 -0.6
v 0.3 3.2 -1
v 0.3 3.3 -0.6
v 0.3 3.3 -0.7
v 0.3 3.3 -0.9
v 0.3 3.3 -1
v 0.3 3.4 -0.6
v 0.3 3.4 -0.7
v 0.3 3.4 -0.9
v 0.3 3.4 -1
v 0.3 3.5 -0.5
v 0.3 3.5 -1.1
v 0.4 2.7 -0.5
v 0.4 2.7 -0.7
v 0.4 2.7 -0.9
v 0.4 2.7 -1.1
v 0.4 2.8 -0.7
v 0.4 2.8 -0.9
v 0.4 2.9 -0.5
v 0.4 2.9 -1.1
v 0.5 2.6 -0.5
v 0.5 2.6 -0.6
v 0.5 2.6 -1
v 0.5 2.6 -1.1
v 0.5 2.7 -0.5
v 0.5 2.7 -0.6
v 0.5 2.7 -0.7
v 0.5 2.7 -0.9
v 0.5 2.7 -1
v 0.5 2.7 -1.1
v 0.6 2.5 -0.5
v 0.6 2.5 -1.1
v 0.6 2.6 -0.5
v 0.6 2.6 -0.6
v 0.6 2.6 -1
v 0.6 2.6 -1.1
v 0.6 2.7 -0.4
v 0.6 2.7 -0.5
v 0.6 2.7 -1.1
v 0.6 2.7 -1.2
v 0.6 2.8 -0.4
v 0.6 2.8 -0.5
v 0.6 2.8 -1.1
v 0.6 2.8 -1.2
v 0.7 2.1 -0.6
v 0.7 2.1 -0.7
v 0.7 2.1 -0.9
v 0.7 2.1 -1
v 0.7 2.2 -0.6
v 0.7 2.2 -0.7
v 0.7 2.2 -0.9
v 0.7 2.2 -1
v 0.7 2.6 -0.4
v 0.7 2.6 -0.5
v 0.7 2.6 -1.1
v 0.7 2.6 -1.2
v 0.7 2.7 -0.4
v 0.7 2.7 -0.5
v 0.7 2.7 -1.1
v 0.7 2.7 -1.2
v 0.7 2.8 -0.4
v 0.7 2.8 -0.5
v 0.7 2.8 -1.1
v 0.7 2.8 -1.2
v 0.7 2.9 -0.4
v 0.7 2.9 -0.5
v 0.7 2.9 -1.1
v 0.7 2.9 -1.2
v 0.9 2.2 -0.6
v 0.9 2.2 -0.7
v 0.9 2.2 -0.9
v 0.9 2.2 -1
v 0.9 2.5 -0.6
v 0.9 2.5 -0.7
v 0.9 2.5 -0.9
v 0.9 2.5 -1
v 1.3 2.9 -0.6
v 1.3 2.9 -1
v 1.3 3 -0.6
v 1.3 3 -1
v 1.4 3 -0.7
v 1.4 3 -0.9
v 1.4 3.1 -0.7
v 1.4 3.1 -0.9
v 0.6 3.4 -0.5
v 0.6 3.4 -0.6
v 0.6 3.4 -1
v 0.6 3.4 -1.1
v 0.6 3.5 -0.5
v 0.6 3.5 -0.6
v 0.6 3.5 -1
v 0.6 3.5 -1.1
v 0.7 3.2 -0.5
v 0.7 3.2 -0.6
v 0.7 3.2 -1
v 0.7 3.2 -1.1
v 0.7 3.3 -0.6
v 0.7 3.3 -0.7
v 0.7 3.3 -0.9
v 0.7 3.3 -1
v 0.7 3.4 -0.5
v 0.7 3.4 -0.6
v 0.7 3.4 -0.7
v 0.7 3.4 -0.9
v 0.7 3.4 -1
v 0.7 3.4 -1.1
v 0.7 3.5 -0.6
v 0.7 3.5 -1
v 0.8 3 -0.5
v 0.8 3 -0.7
v 0.8 3 -0.9
v 0.8 3 -1.1
v 0.8 3.2 -0.5
v 0.8 3.2 -0.6
v 0.8 3.2 -0.7
v 0.8 3.2 -0.9
v 0.8 3.2 -1
v 0.8 3.2 -1.1
v 0.8 3.3 -0.6
v 0.8 3.3 -0.7
v 0.8 3.3 -0.9
v 0.8 3.3 -1
v 0.8 3.4 -0.7
v 0.8 3.4 -0.9
v 0.9 2.8 -0.4
v 0.9 2.8 -0.5
v 0.9 2.8 -1.1
v 0.9 2.8 -1.2
v 0.9 2.9 -0.4
v 0.9 2.9 -0.5
v 0.9 2.9 -0.6
v 0.9 2.9 -1
v 0.9 2.9 -1.1
v 0.9 2.9 -1.2
v 0.9 3 -0.5
v 0.9 3 -0.6
v 0.9 3 -0.7
v 0.9 3 -0.9
v 0.9 3 -1
v 0.9 3 -1.1
v 0.9 3.2 -0.7
v 0.9 3.2 -0.9
v 1 2.1 -0.6
v 1 2.1 -0.7
v 1 2.1 -0.9
v 1 2.1 -1
v 1 2.5 -0.6
v 1 2.5 -0.7
v 1 2.5 -0.9
v 1 2.5 -1
v 1 2.6 -0.4
v 1 2.6 -0.5
v 1 2.6 -1.1
v 1 2.6 -1.2
v 1 2.7 -0.4
v 1 2.7 -0.5
v 1 2.7 -1.1
v 1 2.7 -1.2
v 1 2.9 -0.6
v 1 2.9 -1
v 1 3 -0.6
v 1 3 -1
v 1.1 2.5 -0.5
v 1.1 2.5 -0.6
v 1.1 2.5 -1
v 1.1 2.5 -1.1
v 1.1 2.6 -0.5
v 1.1 2.6 -0.6
v 1.1 2.6 -1
v 1.1 2.6 -1.1
v 1.1 2.7 -0.4
v 1.1 2.7 -0.5
v 1.1 2.7 -1.1
v 1.1 2.7 -1.2
v 1.1 2.8 -0.4
v 1.1 2.8 -0.5
v 1.1 2.8 -1.1
v 1.1 2.8 -1.2
v 1.2 2.5 -0.6
v 1.2 2.5 -1
v 1.2 2.6 -0.5
v 1.2 2.6 -0.6
v 1.2 2.6 -1
v 1.2 2.6 -1.1
v 1.2 2.7 -0.5
v 1.2 2.7 -0.6
v 1.2 2.7 -1
v 1.2 2.7 -1.1
v 1.3 2.6 -0.6
v 1.3 2.6 -0.7
v 1.3 2.6 -0.9
v 1.3 2.6 -1
v 1.3 2.7 -0.5
v 1.3 2.7 -0.6
v 1.3 2.7 -0.7
v 1.3 2.7 -0.9
v 1.3 2.7 -1
v 1.3 2.7 -1.1
v 1.3 2.9 -0.5
v 1.3 2.9 -0.6
v 1.3 2.9 -1
v 1.3 2.9 -1.1
v 1.4 2.6 -0.7
v 1.4 2.6 -0.9
v 1.4 2.7 -0.6
v 1.4 2.7 -0.7
v 1.4 2.7 -0.9
v 1.4 2.7 -1
v 1.4 2.8 -0.7
v 1.4 2.8 -0.9
v 1.4 3 -0.6
v 1.4 3 -0.7
v 1.4 3 -0.9
v 1.4 3 -1
v 1.5 2.8 -0.7
v 1.5 2.8 -0.9
v 1.5 3.1 -0.7
v 1.5 3.1 -0.9
v 0.6 2.7 -0.4
v 0.6 2.8 -0.4
v 0.7 2.6 -0.4
v 0.7 2.7 -0.4
v 0.7 2.8 -0.4
v 0.7 2.9 -0.4
v 0.9 2.8 -0.4
v 0.9 2.9 -0.4
v 1 2.6 -0.4
v 1 2.7 -0.4
v 1.1 2.7 -0.4
v 1.1 2.8 -0.4
v 0.3 2.9 -0.5
v 0.3 3.5 -0.5
v 0.4 2.7 -0.5
v 0.4 2.9 -0.5
v 0.5 2.6 -0.5
v 0.5 2.7 -0.5
v 0.6 2.5 -0.5
v 0.6 2.6 -0.5
v 0.6 2.7 -0.5
v 0.6 2.8 -0.5
v 0.6 3.4 -0.5
v 0.6 3.5 -0.5
v 0.7 2.6 -0.5
v 0.7 2.7 -0.5
v 0.7 2.8 -0.5
v 0.7 2.9 -0.5
v 0.7 3.2 -0.5
v 0.7 3.4 -0.5
v 0.8 3 -0.5
v 0.8 3.2 -0.5
v 0.9 2.8 -0.5
v 0.9 2.9 -0.5
v 0.9 3 -0.5
v 1 2.6 -0.5
v 1 2.7 -0.5
v 1.1 2.5 -0.5
v 1.1 2.6 -0.5
v 1.1 2.7 -0.5
v 1.1 2.8 -0.5
v 1.2 2.6 -0.5
v 1.2 2.7 -0.5
v 1.3 2.7 -0.5
v 1.3 2.9 -0.5
v 0.1 3.1 -0.6
v 0.1 3.2 -0.6
v 0.3 3.1 -0.6
v 0.3 3.2 -0.6
v 0.6 3.4 -0.6
v 0.6 3.5 -0.6
v 0.7 2.1 -0.6
v 0.7 2.2 -0.6
v 0.7 3.2 -0.6
v 0.7 3.3 -0.6
v 0.7 3.4 -0.6
v 0.7 3.5 -0.6
v 0.8 3.2 -0.6
v 0.8 3.3 -0.6
v 0.9 2.2 -0.6
v 0.9 2.5 -0.6
v 0.9 2.9 -0.6
v 0.9 3 -0.6
v 1 2.1 -0.6
v 1 2.5 -0.6
v 1 2.9 -0.6
v 1 3 -0.6
v 1.1 2.5 -0.6
v 1.1 2.6 -0.6
v 1.2 2.5 -0.6
v 1.2 2.6 -0.6
v 1.2 2.7 -0.6
v 1.3 2.6 -0.6
v 1.3 2.7 -0.6
v 1.3 2.9 -0.6
v 1.3 3 -0.6
v 1.4 2.7 -0.6
v 1.4 3 -0.6
v 0.2 3 -0.7
v 0.2 3.1 -0.7
v 0.3 3 -0.7
v 0.3 3.1 -0.7
v 0.7 3.3 -0.7
v 0.7 3.4 -0.7
v 0.8 3 -0.7
v 0.8 3.2 -0.7
v 0.8 3.3 -0.7
v 0.8 3.4 -0.7
v 0.9 3 -0.7
v 0.9 3.2 -0.7
v 1.3 2.6 -0.7
v 1.3 2.7 -0.7
v 1.4 2.6 -0.7
v 1.4 2.7 -0.7
v 1.4 2.8 -0.7
v 1.4 3 -0.7
v 1.4 3.1 -0.7
v 1.5 2.8 -0.7
v 1.5 3.1 -0.7
v 0.7 2.1 -0.9
v 0.7 2.2 -0.9
v 0.9 2.2 -0.9
v 0.9 2.5 -0.9
v 1 2.1 -0.9
v 1 2.5 -0.9
v 0.7 2.1 -0.7
v 0.7 2.2 -0.7
v 0.9 2.2 -0.7
v 0.9 2.5 -0.7
v 1 2.1 -0.7
v 1 2.5 -0.7
v 0.2 3 -0.9
v 0.2 3.1 -0.9
v 0.3 3 -0.9
v 0.3 3.1 -0.9
v 0.7 3.3 -0.9
v 0.7 3.4 -0.9
v 0.8 3 -0.9
v 0.8 3.2 -0.9
v 0.8 3.3 -0.9
v 0.8 3.4 -0.9
v 0.9 3 -0.9
v 0.9 3.2 -0.9
v 1.3 2.6 -0.9
v 1.3 2.7 -0.9
v 1.4 2.6 -0.9
v 1.4 2.7 -0.9
v 1.4 2.8 -0.9
v 1.4 3 -0.9
v 1.4 3.1 -0.9
v 1.5 2.8 -0.9
v 1.5 3.1 -0.9
v 0.1 3.1 -1
v 0.1 3.2 -1
v 0.3 3.1 -1
v 0.3 3.2 -1
v 0.6 3.4 -1
v 0.6 3.5 -1
v 0.7 2.1 -1
v 0.7 2.2 -1
v 0.7 3.2 -1
v 0.7 3.3 -1
v 0.7 3.4 -1
v 0.7 3.5 -1
v 0.8 3.2 -1
v 0.8 3.3 -1
v 0.9 2.2 -1
v 0.9 2.5 -1
v 0.9 2.9 -1
v 0.9 3 -1
v 1 2.1 -1
v 1 2.5 -1
v 1 2.9 -1
v 1 3 -1
v 1.1 2.5 -1
v 1.1 2.6 -1
v 1.2 2.5 -1
v 1.2 2.6 -1
v 1.2 2.7 -1
v 1.3 2.6 -1
v 1.3 2.7 -1
v 1.3 2.9 -1
v 1.3 3 -1
v 1.4 2.7 -1
v 1.4 3 -1
v 0.3 2.9 -1.1
v 0.3 3.5 -1.1
v 0.4 2.7 -1.1
v 0.4 2.9 -1.1
v 0.5 2.6 -1.1
v 0.5 2.7 -1.1
v 0.6 2.5 -1.1
v 0.6 2.6 -1.1
v 0.6 2.7 -1.1
v 0.6 2.8 -1.1
v 0.6 3.4 -1.1
v 0.6 3.5 -1.1
v 0.7 2.6 -1.1
v 0.7 2.7 -1.1
v 0.7 2.8 -1.1
v 0.7 2.9 -1.1
v 0.7 3.2 -1.1
v 0.7 3.4 -1.1
v 0.8 3 -1.1
v 0.8 3.2 -1.1
v 0.9 2.8 -1.1
v 0.9 2.9 -1.1
v 0.9 3 -1.1
v 1 2.6 -1.1
v 1 2.7 -1.1
v 1.1 2.5 -1.1
v 1.1 2.6 -1.1
v 1.1 2.7 -1.1
v 1.1 2.8 -1.1
v 1.2 2.6 -1.1
v 1.2 2.7 -1.1
v 1.3 2.7 -1.1
v 1.3 2.9 -1.1
v 0.6 2.7 -1.2
v 0.6 2.8 -1.2
v 0.7 2.6 -1.2
v 0.7 2.7 -1.2
v 0.7 2.8 -1.2
v 0.7 2.9 -1.2
v 0.9 2.8 -1.2
v 0.9 2.9 -1.2
v 1 2.6 -1.2
v 1 2.7 -1.2
v 1.1 2.7 -1.2
v 1.1 2.8 -1.2
v 0.7 2.1 -0.6
v 1 2.1 -0.6
v 0.7 2.1 -0.7
v 1 2.1 -0.7
v 0.7 2.1 -0.9
v 1 2.1 -0.9
v 0.7 2.1 -1
v 1 2.1 -1
v 0.6 2.5 -0.5
v 1.1 2.5 -0.5
v 0.9 2.5 -0.6
v 1 2.5 -0.6
v 1.1 2.5 -0.6
v 1.2 2.5 -0.6
v 0.9 2.5 -0.7
v 1 2.5 -0.7
v 0.9 2.5 -0.9
v 1 2.5 -0.9
v 0.9 2.5 -1
v 1 2.5 -1
v 1.1 2.5 -1
v 1.2 2.5 -1
v 0.6 2.5 -1.1
v 1.1 2.5 -1.1
v 0.7 2.6 -0.4
v 1 2.6 -0.4
v 0.5 2.6 -0.5
v 0.6 2.6 -0.5
v 0.7 2.6 -0.5
v 1 2.6 -0.5
v 1.1 2.6 -0.5
v 1.2 2.6 -0.5
v 0.5 2.6 -0.6
v 0.6 2.6 -0.6
v 1.1 2.6 -0.6
v 1.2 2.6 -0.6
v 1.3 2.6 -0.6
v 1.3 2.6 -0.7
v 1.4 2.6 -0.7
v 1.3 2.6 -0.9
v 1.4 2.6 -0.9
v 0.5 2.6 -1
v 0.6 2.6 -1
v 1.1 2.6 -1
v 1.2 2.6 -1
v 1.3 2.6 -1
v 0.5 2.6 -1.1
v 0.6 2.6 -1.1
v 0.7 2.6 -1.1
v 1 2.6 -1.1
v 1.1 2.6 -1.1
v 1.2 2.6 -1.1
v 0.7 2.6 -1.2
v 1 2.6 -1.2
v 0.6 2.7 -0.4
v 0.7 2.7 -0.4
v 1 2.7 -0.4
v 1.1 2.7 -0.4
v 0.4 2.7 -0.5
v 0.5 2.7 -0.5
v 0.6 2.7 -0.5
v 0.7 2.7 -0.5
v 1 2.7 -0.5
v 1.1 2.7 -0.5
v 1.2 2.7 -0.5
v 1.3 2.7 -0.5
v 0.5 2.7 -0.6
v 1.2 2.7 -0.6
v 1.3 2.7 -0.6
v 1.4 2.7 -0.6
v 0.4 2.7 -0.7
v 0.5 2.7 -0.7
v 1.3 2.7 -0.7
v 1.4 2.7 -0.7
v 0.4 2.7 -0.9
v 0.5 2.7 -0.9
v 1.3 2.7 -0.9
v 1.4 2.7 -0.9
v 0.5 2.7 -1
v 1.2 2.7 -1
v 1.3 2.7 -1
v 1.4 2.7 -1
v 0.4 2.7 -1.1
v 0.5 2.7 -1.1
v 0.6 2.7 -1.1
v 0.7 2.7 -1.1
v 1 2.7 -1.1
v 1.1 2.7 -1.1
v 1.2 2.7 -1.1
v 1.3 2.7 -1.1
v 0.6 2.7 -1.2
v 0.7 2.7 -1.2
v 1 2.7 -1.2
v 1.1 2.7 -1.2
v 1.4 2.8 -0.7
v 1.5 2.8 -0.7
v 1.4 2.8 -0.9
v 1.5 2.8 -0.9
v 0.3 2.9 -0.5
v 0.4 2.9 -0.5
v 0.3 2.9 -1.1
v 0.4 2.9 -1.1
v 0.2 3 -0.7
v 0.3 3 -0.7
v 0.2 3 -0.9
v 0.3 3 -0.9
v 0.1 3.1 -0.6
v 0.3 3.1 -0.6
v 0.2 3.1 -0.7
v 0.3 3.1 -0.7
v 0.2 3.1 -0.9
v 0.3 3.1 -0.9
v 0.1 3.1 -1
v 0.3 3.1 -1
v 0.7 2.2 -0.6
v 0.9 2.2 -0.6
v 0.7 2.2 -0.7
v 0.9 2.2 -0.7
v 0.7 2.2 -0.9
v 0.9 2.2 -0.9
v 0.7 2.2 -1
v 0.9 2.2 -1
v 0.6 2.8 -0.4
v 0.7 2.8 -0.4
v 0.9 2.8 -0.4
v 1.1 2.8 -0.4
v 0.6 2.8 -0.5
v 0.7 2.8 -0.5
v 0.9 2.8 -0.5
v 1.1 2.8 -0.5
v 0.6 2.8 -1.1
v 0.7 2.8 -1.1
v 0.9 2.8 -1.1
v 1.1 2.8 -1.1
v 0.6 2.8 -1.2
v 0.7 2.8 -1.2
v 0.9 2.8 -1.2
v 1.1 2.8 -1.2
v 0.7 2.9 -0.4
v 0.9 2.9 -0.4
v 0.7 2.9 -0.5
v 0.9 2.9 -0.5
v 1.3 2.9 -0.5
v 0.9 2.9 -0.6
v 1 2.9 -0.6
v 1.3 2.9 -0.6
v 0.9 2.9 -1
v 1 2.9 -1
v 1.3 2.9 -1
v 0.7 2.9 -1.1
v 0.9 2.9 -1.1
v 1.3 2.9 -1.1
v 0.7 2.9 -1.2
v 0.9 2.9 -1.2
v 0.8 3 -0.5
v 0.9 3 -0.5
v 0.9 3 -0.6
v 1 3 -0.6
v 1.3 3 -0.6
v 1.4 3 -0.6
v 0.8 3 -0.7
v 0.9 3 -0.7
v 1.4 3 -0.7
v 0.8 3 -0.9
v 0.9 3 -0.9
v 1.4 3 -0.9
v 0.9 3 -1
v 1 3 -1
v 1.3 3 -1
v 1.4 3 -1
v 0.8 3 -1.1
v 0.9 3 -1.1
v 1.4 3.1 -0.7
v 1.5 3.1 -0.7
v 1.4 3.1 -0.9
v 1.5 3.1 -0.9
v 0.7 3.2 -0.5
v 0.8 3.2 -0.5
v 0.1 3.2 -0.6
v 0.3 3.2 -0.6
v 0.7 3.2 -0.6
v 0.8 3.2 -0.6
v 0.8 3.2 -0.7
v 0.9 3.2 -0.7
v 0.8 3.2 -0.9
v 0.9 3.2 -0.9
v 0.1 3.2 -1
v 0.3 3.2 -1
v 0.7 3.2 -1
v 0.8 3.2 -1
v 0.7 3.2 -1.1
v 0.8 3.2 -1.1
v 0.7 3.3 -0.6
v 0.8 3.3 -0.6
v 0.7 3.3 -0.7
v 0.8 3.3 -0.7
v 0.7 3.3 -0.9
v 0.8 3.3 -0.9
v 0.7 3.3 -1
v 0.8 3.3 -1
v 0.6 3.4 -0.5
v 0.7 3.4 -0.5
v 0.6 3.4 -0.6
v 0.7 3.4 -0.6
v 0.7 3.4 -0.7
v 0.8 3.4 -0.7
v 0.7 3.4 -0.9
v 0.8 3.4 -0.9
v 0.6 3.4 -1
v 0.7 3.4 -1
v 0.6 3.4 -1.1
v 0.7 3.4 -1.1
v 0.3 3.5 -0.5
v 0.6 3.5 -0.5
v 0.6 3.5 -0.6
v 0.7 3.5 -0.6
v 0.6 3.5 -1
v 0.7 3.5 -1
v 0.3 3.5 -1.1
v 0.6 3.5 -1.1

# faces
f 3/3/1 2/3/1 1/3/1
f 4/3/1 2/3/1 3/3/1
f 7/3/1 6/3/1 5/3/1
f 8/3/1 6/3/1 7/3/1
f 11/2/1 10/2/1 9/2/1
f 12/2/1 10/2/1 11/2/1
f 13/2/1 11/2/1 9/2/1
f 14/2/1 11/2/1 13/2/1
f 15/2/1 10/2/1 12/2/1
f 16/2/1 10/2/1 15/2/1
f 17/2/1 13/2/1 9/2/1
f 18/2/1 10/2/1 16/2/1
f 19/2/1 17/2/1 9/2/1
f 19/2/1 18/2/1 17/2/1
f 20/2/1 18/2/1 19/2/1
f 21/2/1 18/2/1 20/2/1
f 22/2/1 10/2/1 18/2/1
f 22/2/1 18/2/1 21/2/1
f 23/2/1 19/2/1 9/2/1
f 23/4/1 20/4/1 19/4/1
f 24/2/1 21/2/1 20/2/1
f 24/4/1 20/4/1 23/4/1
f 25/4/1 22/4/1 21/4/1
f 25/2/1 21/2/1 24/2/1
f 26/2/1 10/2/1 22/2/1
f 26/4/1 22/4/1 25/4/1
f 27/2/1 23/2/1 9/2/1
f 27/2/1 25/2/1 24/2/1
f 27/2/1 26/2/1 25/2/1
f 27/2/1 24/2/1 23/2/1
f 28/2/1 10/2/1 26/2/1
f 28/2/1 26/2/1 27/2/1
f 33/2/1 30/2/1 29/2/1
f 33/1/1 31/1/1 30/1/1
f 34/2/1 32/2/1 31/2/1
f 34/1/1 31/1/1 33/1/1
f 35/2/1 33/2/1 29/2/1
f 35/2/1 34/2/1 33/2/1
f 36/2/1 32/2/1 34/2/1
f 36/2/1 34/2/1 35/2/1
f 41/2/1 38/2/1 37/2/1
f 42/1/1 39/1/1 38/1/1
f 42/2/1 38/2/1 41/2/1
f 43/1/1 39/1/1 42/1/1
f 44/1/1 39/1/1 43/1/1
f 45/2/1 40/2/1 39/2/1
f 45/1/1 39/1/1 44/1/1
f 46/2/1 40/2/1 45/2/1
f 49/1/1 48/1/1 47/1/1
f 50/1/1 48/1/1 49/1/1
f 51/1/1 48/1/1 50/1/1
f 52/1/1 48/1/1 51/1/1
f 57/2/1 54/2/1 53/2/1
f 58/2/1 54/2/1 57/2/1
f 59/2/1 56/2/1 55/2/1
f 60/2/1 56/2/1 59/2/1
f 65/3/1 62/3/1 61/3/1
f 66/3/1 62/3/1 65/3/1
f 67/3/1 64/3/1 63/3/1
f 68/3/1 64/3/1 67/3/1
f 73/2/1 70/2/1 69/2/1
f 74/2/1 70/2/1 73/2/1
f 75/2/1 72/2/1 71/2/1
f 76/2/1 72/2/1 75/2/1
f 81/2/1 78/2/1 77/2/1
f 82/2/1 78/2/1 81/2/1
f 83/2/1 80/2/1 79/2/1
f 84/2/1 80/2/1 83/2/1
f 89/3/1 86/3/1 85/3/1
f 90/3/1 86/3/1 89/3/1
f 91/3/1 88/3/1 87/3/1
f 92/3/1 88/3/1 91/3/1
f 95/2/1 94/2/1 93/2/1
f 96/2/1 94/2/1 95/2/1
f 99/2/1 98/2/1 97/2/1
f 100/2/1 98/2/1 99/2/1
f 101/2/2 102/2/2 105/2/2
f 105/2/2 102/2/2 106/2/2
f 103/2/2 104/2/2 107/2/2
f 107/2/2 104/2/2 108/2/2
f 109/2/2 110/2/2 113/2/2
f 111/2/2 112/2/2 116/2/2
f 113/2/2 114/2/2 117/2/2
f 109/2/2 113/2/2 117/2/2
f 117/2/2 114/2/2 118/2/2
f 118/2/2 114/2/2 119/2/2
f 115/2/2 116/2/2 120/2/2
f 116/2/2 112/2/2 121/2/2
f 120/2/2 116/2/2 121/2/2
f 121/2/2 112/2/2 122/2/2
f 118/2/2 119/2/2 123/2/2
f 119/2/2 120/2/2 123/2/2
f 120/2/2 121/2/2 123/2/2
f 123/2/2 121/2/2 124/2/2
f 125/2/2 126/2/2 129/2/2
f 129/2/2 126/2/2 130/2/2
f 130/2/2 126/2/2 131/2/2
f 127/2/2 128/2/2 132/2/2
f 132/2/2 128/2/2 133/2/2
f 133/2/2 128/2/2 134/2/2
f 130/2/2 131/2/2 135/2/2
f 132/2/2 133/2/2 135/2/2
f 131/2/2 132/2/2 135/2/2
f 135/2/2 133/2/2 136/2/2
f 136/2/2 133/2/2 137/2/2
f 137/2/2 133/2/2 138/2/2
f 136/2/2 137/2/2 139/2/2
f 139/2/2 137/2/2 140/2/2
f 141/2/2 142/2/2 145/2/2
f 145/2/2 142/2/2 146/2/2
f 143/2/2 144/2/2 149/2/2
f 149/2/2 144/2/2 150/2/2
f 146/2/2 147/2/2 151/2/2
f 151/2/2 147/2/2 152/2/2
f 148/2/2 149/2/2 155/2/2
f 155/2/2 149/2/2 156/2/2
f 153/1/2 154/1/2 157/1/2
f 157/1/2 154/1/2 158/1/2
f 159/3/2 160/3/2 163/3/2
f 163/3/2 160/3/2 164/3/2
f 161/3/2 162/3/2 165/3/2
f 165/3/2 162/3/2 166/3/2
f 167/2/2 168/2/2 171/2/2
f 171/2/2 168/2/2 172/2/2
f 169/2/2 170/2/2 173/2/2
f 173/2/2 170/2/2 174/2/2
f 175/1/2 176/1/2 177/1/2
f 177/1/2 176/1/2 178/1/2
f 179/1/2 180/1/2 183/1/2
f 183/1/2 180/1/2 184/1/2
f 181/1/2 182/1/2 185/1/2
f 185/1/2 182/1/2 186/1/2
f 187/2/2 188/2/2 191/2/2
f 191/2/2 188/2/2 192/2/2
f 189/2/2 190/2/2 193/2/2
f 193/2/2 190/2/2 194/2/2
f 195/1/2 196/1/2 198/1/2
f 198/1/2 196/1/2 199/1/2
f 197/2/2 198/2/2 201/2/2
f 201/2/2 198/2/2 202/2/2
f 199/2/2 200/2/2 203/2/2
f 203/2/2 200/2/2 204/2/2
f 205/1/2 206/1/2 210/1/2
f 210/1/2 206/1/2 211/1/2
f 207/1/2 208/1/2 212/1/2
f 212/1/2 208/1/2 213/1/2
f 209/2/2 210/2/2 215/2/2
f 215/2/2 210/2/2 216/2/2
f 213/2/2 214/2/2 217/2/2
f 217/2/2 214/2/2 218/2/2
f 219/1/2 220/1/2 222/1/2
f 222/1/2 220/1/2 223/1/2
f 221/2/2 222/2/2 225/2/2
f 222/1/2 223/1/2 225/1/2
f 223/2/2 224/2/2 226/2/2
f 225/1/2 223/1/2 226/1/2
f 221/2/2 225/2/2 227/2/2
f 227/2/2 225/2/2 228/2/2
f 226/2/2 224/2/2 229/2/2
f 229/2/2 224/2/2 230/2/2
f 231/2/2 232/2/2 233/2/2
f 233/2/2 232/2/2 234/2/2
f 238/2/3 236/2/3 235/2/3
f 239/2/3 236/2/3 238/2/3
f 241/2/3 238/2/3 237/2/3
f 241/2/3 240/2/3 239/2/3
f 241/2/3 239/2/3 238/2/3
f 242/2/3 240/2/3 241/2/3
f 243/2/3 241/2/3 237/2/3
f 244/2/3 241/2/3 243/2/3
f 245/2/3 241/2/3 244/2/3
f 246/2/3 241/2/3 245/2/3
f 250/2/3 248/2/3 247/2/3
f 252/2/3 250/2/3 249/2/3
f 254/2/3 252/2/3 251/2/3
f 255/2/3 250/2/3 252/2/3
f 255/2/3 252/2/3 254/2/3
f 256/2/3 250/2/3 255/2/3
f 257/2/3 248/2/3 250/2/3
f 257/2/3 250/2/3 256/2/3
f 258/2/3 248/2/3 257/2/3
f 259/1/3 254/1/3 253/1/3
f 259/2/3 255/2/3 254/2/3
f 260/2/3 255/2/3 259/2/3
f 261/2/3 257/2/3 256/2/3
f 262/2/3 257/2/3 261/2/3
f 263/2/3 257/2/3 262/2/3
f 264/2/3 257/2/3 263/2/3
f 265/2/3 263/2/3 262/2/3
f 266/2/3 263/2/3 265/2/3
f 268/2/3 265/2/3 262/2/3
f 269/2/3 265/2/3 268/2/3
f 270/1/3 259/1/3 253/1/3
f 272/1/3 270/1/3 253/1/3
f 273/2/3 271/2/3 270/2/3
f 273/1/3 270/1/3 272/1/3
f 274/2/3 271/2/3 273/2/3
f 275/2/3 268/2/3 267/2/3
f 276/2/3 274/2/3 273/2/3
f 276/2/3 275/2/3 274/2/3
f 277/2/3 275/2/3 276/2/3
f 278/2/3 275/2/3 277/2/3
f 279/2/3 268/2/3 275/2/3
f 279/2/3 275/2/3 278/2/3
f 282/3/3 281/3/3 280/3/3
f 283/3/3 281/3/3 282/3/3
f 290/2/3 285/2/3 284/2/3
f 291/2/3 285/2/3 290/2/3
f 292/2/3 289/2/3 288/2/3
f 293/2/3 289/2/3 292/2/3
f 294/3/3 287/3/3 286/3/3
f 298/3/3 294/3/3 286/3/3
f 298/3/3 295/3/3 294/3/3
f 299/3/3 295/3/3 298/3/3
f 300/1/3 297/1/3 296/1/3
f 301/1/3 297/1/3 300/1/3
f 304/1/3 303/1/3 302/1/3
f 305/1/3 303/1/3 304/1/3
f 307/1/3 306/1/3 305/1/3
f 308/1/3 306/1/3 307/1/3
f 311/2/3 310/2/3 309/2/3
f 311/2/3 309/2/3 308/2/3
f 312/2/3 310/2/3 311/2/3
f 315/3/3 314/3/3 313/3/3
f 316/3/3 314/3/3 315/3/3
f 321/2/3 318/2/3 317/2/3
f 322/2/3 318/2/3 321/2/3
f 323/1/3 320/1/3 319/1/3
f 324/1/3 320/1/3 323/1/3
f 327/1/3 326/1/3 325/1/3
f 328/1/3 326/1/3 327/1/3
f 332/2/3 331/2/3 330/2/3
f 332/2/3 330/2/3 329/2/3
f 333/2/3 331/2/3 332/2/3
f 336/3/3 335/3/3 334/3/3
f 338/3/3 336/3/3 334/3/3
f 338/3/3 337/3/3 336/3/3
f 339/3/3 337/3/3 338/3/3
f 340/3/4 341/3/4 342/3/4
f 340/3/4 342/3/4 344/3/4
f 342/3/4 343/3/4 344/3/4
f 344/3/4 343/3/4 345/3/4
f 346/3/4 347/3/4 348/3/4
f 348/3/4 347/3/4 349/3/4
f 350/2/4 351/2/4 354/2/4
f 354/2/4 351/2/4 355/2/4
f 352/1/4 353/1/4 356/1/4
f 356/1/4 353/1/4 357/1/4
f 358/1/4 359/1/4 360/1/4
f 360/1/4 359/1/4 361/1/4
f 363/2/4 364/2/4 365/2/4
f 362/2/4 363/2/4 365/2/4
f 365/2/4 364/2/4 366/2/4
f 367/3/4 368/3/4 369/3/4
f 369/3/4 368/3/4 370/3/4
f 371/2/4 372/2/4 377/2/4
f 377/2/4 372/2/4 378/2/4
f 375/2/4 376/2/4 379/2/4
f 379/2/4 376/2/4 380/2/4
f 373/3/4 374/3/4 381/3/4
f 373/3/4 381/3/4 385/3/4
f 381/3/4 382/3/4 385/3/4
f 385/3/4 382/3/4 386/3/4
f 383/1/4 384/1/4 387/1/4
f 387/1/4 384/1/4 388/1/4
f 389/1/4 390/1/4 391/1/4
f 391/1/4 390/1/4 392/1/4
f 392/1/4 393/1/4 394/1/4
f 394/1/4 393/1/4 395/1/4
f 396/2/4 397/2/4 398/2/4
f 395/2/4 396/2/4 398/2/4
f 398/2/4 397/2/4 399/2/4
f 400/2/4 401/2/4 403/2/4
f 402/2/4 403/2/4 405/2/4
f 404/2/4 405/2/4 407/2/4
f 405/2/4 403/2/4 408/2/4
f 407/2/4 405/2/4 408/2/4
f 408/2/4 403/2/4 409/2/4
f 403/2/4 401/2/4 410/2/4
f 409/2/4 403/2/4 410/2/4
f 410/2/4 401/2/4 411/2/4
f 406/1/4 407/1/4 412/1/4
f 407/2/4 408/2/4 412/2/4
f 412/2/4 408/2/4 413/2/4
f 409/2/4 410/2/4 414/2/4
f 414/2/4 410/2/4 415/2/4
f 415/2/4 410/2/4 416/2/4
f 416/2/4 410/2/4 417/2/4
f 415/2/4 416/2/4 418/2/4
f 418/2/4 416/2/4 419/2/4
f 415/2/4 418/2/4 421/2/4
f 421/2/4 418/2/4 422/2/4
f 406/1/4 412/1/4 423/1/4
f 406/1/4 423/1/4 425/1/4
f 423/2/4 424/2/4 426/2/4
f 425/1/4 423/1/4 426/1/4
f 426/2/4 424/2/4 427/2/4
f 420/2/4 421/2/4 428/2/4
f 426/2/4 427/2/4 429/2/4
f 427/2/4 428/2/4 429/2/4
f 429/2/4 428/2/4 430/2/4
f 430/2/4 428/2/4 431/2/4
f 428/2/4 421/2/4 432/2/4
f 431/2/4 428/2/4 432/2/4
f 433/2/4 434/2/4 436/2/4
f 436/2/4 434/2/4 437/2/4
f 435/2/4 436/2/4 439/2/4
f 437/2/4 438/2/4 439/2/4
f 436/2/4 437/2/4 439/2/4
f 439/2/4 438/2/4 440/2/4
f 435/2/4 439/2/4 441/2/4
f 441/2/4 439/2/4 442/2/4
f 442/2/4 439/2/4 443/2/4
f 443/2/4 439/2/4 444/2/4
f 447/3/5 446/3/5 445/3/5
f 448/3/5 446/3/5 447/3/5
f 451/3/5 450/3/5 449/3/5
f 452/3/5 450/3/5 451/3/5
f 455/1/5 454/1/5 453/1/5
f 456/1/5 454/1/5 455/1/5
f 457/1/5 454/1/5 456/1/5
f 459/1/5 455/1/5 453/1/5
f 460/1/5 458/1/5 457/1/5
f 460/1/5 457/1/5 456/1/5
f 461/1/5 459/1/5 453/1/5
f 461/1/5 460/1/5 459/1/5
f 462/1/5 458/1/5 460/1/5
f 462/1/5 460/1/5 461/1/5
f 463/1/5 461/1/5 453/1/5
f 464/1/5 458/1/5 462/1/5
f 465/1/5 458/1/5 464/1/5
f 466/1/5 458/1/5 465/1/5
f 467/1/5 463/1/5 453/1/5
f 467/1/5 464/1/5 463/1/5
f 467/1/5 465/1/5 464/1/5
f 468/1/5 465/1/5 467/1/5
f 473/2/5 470/2/5 469/2/5
f 474/2/5 470/2/5 473/2/5
f 477/2/5 472/2/5 471/2/5
f 478/2/5 472/2/5 477/2/5
f 479/2/5 476/2/5 475/2/5
f 480/2/5 476/2/5 479/2/5
f 482/1/5 481/1/5 480/1/5
f 484/1/5 482/1/5 480/1/5
f 484/1/5 483/1/5 482/1/5
f 485/1/5 483/1/5 484/1/5
f 486/1/5 478/1/5 477/1/5
f 487/1/5 478/1/5 486/1/5
f 489/1/5 484/1/5 480/1/5
f 490/1/5 484/1/5 489/1/5
f 491/2/5 487/2/5 486/2/5
f 492/2/5 487/2/5 491/2/5
f 495/2/5 489/2/5 488/2/5
f 496/2/5 489/2/5 495/2/5
f 497/2/5 494/2/5 493/2/5
f 498/2/5 494/2/5 497/2/5
f 505/2/5 500/2/5 499/2/5
f 506/2/5 500/2/5 505/2/5
f 507/2/5 502/2/5 501/2/5
f 508/2/5 502/2/5 507/2/5
f 511/2/5 504/2/5 503/2/5
f 512/2/5 510/2/5 509/2/5
f 513/2/5 510/2/5 512/2/5
f 515/2/5 511/2/5 503/2/5
f 516/2/5 511/2/5 515/2/5
f 517/2/5 514/2/5 513/2/5
f 518/2/5 514/2/5 517/2/5
f 519/1/5 516/1/5 515/1/5
f 520/1/5 516/1/5 519/1/5
f 523/2/5 520/2/5 519/2/5
f 525/2/5 522/2/5 521/2/5
f 526/2/5 522/2/5 525/2/5
f 527/2/5 523/2/5 519/2/5
f 528/2/5 523/2/5 527/2/5
f 533/2/5 525/2/5 524/2/5
f 534/2/5 525/2/5 533/2/5
f 535/2/5 530/2/5 529/2/5
f 536/2/5 530/2/5 535/2/5
f 537/2/5 532/2/5 531/2/5
f 538/2/5 532/2/5 537/2/5
f 541/2/5 540/2/5 539/2/5
f 542/2/5 540/2/5 541/2/5
f 545/2/5 544/2/5 543/2/5
f 546/2/5 544/2/5 545/2/5
f 549/3/5 548/3/5 547/3/5
f 550/3/5 548/3/5 549/3/5
f 553/3/5 552/3/5 551/3/5
f 554/3/5 552/3/5 553/3/5
f 555/3/5 553/3/5 551/3/5
f 557/3/5 555/3/5 551/3/5
f 557/3/5 556/3/5 555/3/5
f 558/3/5 556/3/5 557/3/5
f 559/3/6 560/3/6 561/3/6
f 561/3/6 560/3/6 562/3/6
f 563/3/6 564/3/6 565/3/6
f 565/3/6 564/3/6 566/3/6
f 567/2/6 568/2/6 571/2/6
f 571/2/6 568/2/6 572/2/6
f 569/2/6 570/2/6 573/2/6
f 573/2/6 570/2/6 574/2/6
f 575/2/6 576/2/6 579/2/6
f 579/2/6 576/2/6 580/2/6
f 577/2/6 578/2/6 581/2/6
f 581/2/6 578/2/6 582/2/6
f 583/2/6 584/2/6 585/2/6
f 585/2/6 584/2/6 586/2/6
f 586/2/6 587/2/6 588/2/6
f 588/2/6 587/2/6 589/2/6
f 589/2/6 587/2/6 590/2/6
f 589/2/6 590/2/6 592/2/6
f 592/2/6 590/2/6 593/2/6
f 591/2/6 592/2/6 595/2/6
f 592/2/6 593/2/6 595/2/6
f 595/2/6 593/2/6 596/2/6
f 594/2/6 595/2/6 597/2/6
f 597/2/6 595/2/6 598/2/6
f 599/2/6 600/2/6 601/2/6
f 599/2/6 601/2/6 605/2/6
f 601/1/6 602/1/6 606/1/6
f 605/2/6 601/2/6 606/2/6
f 603/2/6 604/2/6 607/2/6
f 606/1/6 602/1/6 609/1/6
f 603/2/6 607/2/6 610/2/6
f 608/2/6 609/2/6 611/2/6
f 609/1/6 602/1/6 611/1/6
f 611/1/6 602/1/6 612/1/6
f 603/2/6 610/2/6 613/2/6
f 613/2/6 610/2/6 614/2/6
f 608/2/6 611/2/6 615/2/6
f 615/2/6 611/2/6 616/2/6
f 617/2/6 618/2/6 619/2/6
f 619/2/6 618/2/6 620/2/6
f 621/2/6 622/2/6 625/2/6
f 625/2/6 622/2/6 626/2/6
f 627/1/6 628/1/6 629/1/6
f 629/1/6 628/1/6 630/1/6
f 623/3/6 624/3/6 631/3/6
f 631/3/6 624/3/6 632/3/6
f 633/2/6 634/2/6 635/2/6
f 635/2/6 634/2/6 636/2/6
f 637/2/6 638/2/6 639/2/6
f 639/2/6 638/2/6 640/2/6
f 641/2/6 642/2/6 643/2/6
f 643/2/6 642/2/6 644/2/6
f 645/2/6 646/2/6 647/2/6
f 647/2/6 646/2/6 648/2/6
f 649/2/6 650/2/6 651/2/6
f 651/2/6 650/2/6 652/2/6
f 653/2/6 654/2/6 655/2/6
f 655/2/6 654/2/6 656/2/6
f 657/2/6 658/2/6 659/2/6
f 657/2/6 659/2/6 661/2/6
f 659/2/6 660/2/6 661/2/6
f 661/2/6 660/2/6 662/2/6
f 657/2/6 661/2/6 663/2/6
f 663/2/6 661/2/6 664/2/6
